<svg xmlns="http://www.w3.org/2000/svg" version="1.1" fill="currentColor" viewBox="0 2 28 24" aria-hidden="true"><path fill-rule="evenodd" d="m0.1 3.1c0-1.7 1.3-3 3-3h7.9c1.6 0 3 1.3 3 3v11.4c0 1.7-1.4 3-3 3h-7.9c-1.7 0-3-1.3-3-3zm1.1 11.3c0 1.1 0.9 2 2 2h7.6c1.1 0 2-0.9 2-2v-11.1c0-1.1-0.9-2-2-2h-7.6c-1.1 0-2 0.9-2 2z"></path><path d="m5.7 16.9q0.1 0.1 0.1 0.4v1.1h2.4v-1.1c0-0.4 0.3-0.6 0.6-0.6 0.3 0 0.6 0.2 0.6 0.6v1.6q0 0.3-0.2 0.5-0.2 0.1-0.4 0.1h-3.6c-0.3 0-0.5-0.2-0.5-0.6v-1.6c0-0.4 0.2-0.6 0.5-0.6q0.3 0 0.5 0.2z"></path><path xmlns="http://www.w3.org/2000/svg" d="m7.5 18.8q0.2 0.1 0.2 0.4v3.5c0 2.2 2 4.1 4.5 4.1 2.6 0 4.6-1.8 4.6-4.1v-1.2c0-0.3 0.3-0.6 0.7-0.6 0.3 0 0.6 0.3 0.6 0.6v1.2c-0.1 2.9-2.7 5.3-5.9 5.2-3.2 0-5.8-2.3-5.8-5.3v-3.4q0-0.3 0.2-0.4 0.2-0.2 0.5-0.2 0.2 0 0.4 0.2z"></path><path xmlns="http://www.w3.org/2000/svg" d="m24.9 7.9v7.7c0 0.3-0.2 0.6-0.5 0.6-0.3 0-0.5-0.3-0.5-0.6v-7.7c0-2.4-1.4-4.1-2.9-4.1-1.6 0-3 1.7-3 4.1v13.4c0 0.3-0.2 0.6-0.5 0.6-0.3 0-0.5-0.3-0.5-0.6v-13.4c0-2.9 1.7-5.3 4-5.3 2.2 0 3.9 2.4 3.9 5.3z"></path><path d="m23.4 16.1v3.4c0 0.8 0.5 1.3 0.9 1.3 0.5 0 1-0.5 1-1.3v-3.4c0-0.9 0.6-0.6 1.2 0v3.4c0 1.3-0.9 2.4-2.2 2.4-1.2 0-2.1-1.1-2.1-2.4v-3.4c0.3-0.5 0.9-0.6 1.2 0z"></path><path d="m21.4 15.4h5.9q0.3-0.1 0.5 0.1 0.1 0.2 0.1 0.4 0 0.3-0.1 0.5-0.2 0.1-0.5 0.1h-5.9c-0.3 0-0.6-0.2-0.6-0.5 0-0.3 0.2-0.6 0.5-0.6q0 0 0.1 0z"></path><path d="m24.7 21q0.2 0.2 0.2 0.4v2.8c0 0.4-0.2 0.6-0.6 0.6-0.3 0-0.5-0.2-0.5-0.6v-2.8c0-0.3 0.2-0.5 0.5-0.5q0.3 0 0.4 0.1z"></path><path d="m0.9 3.3h12c0.4 0 0.6 0.3 0.6 0.6 0 0.3-0.2 0.6-0.6 0.6h-12c-0.3 0-0.6-0.3-0.6-0.6 0-0.3 0.2-0.6 0.5-0.6q0.1 0 0.1 0z"></path><path d="m12.9 5.9c0.4 0 0.6 0.3 0.6 0.6 0 0.3-0.2 0.6-0.6 0.6h-3.2c-0.3 0-0.6-0.3-0.6-0.6 0-0.3 0.3-0.6 0.6-0.6z"></path><path d="m12.9 8.5c0.4 0 0.6 0.3 0.6 0.6 0 0.3-0.2 0.6-0.6 0.6h-3.2c-0.3 0-0.6-0.3-0.6-0.6 0-0.3 0.3-0.6 0.6-0.6z"></path><path d="m12.9 11.1c0.4 0 0.6 0.3 0.6 0.6 0 0.3-0.2 0.6-0.6 0.6h-3.2c-0.3 0-0.6-0.3-0.6-0.6 0-0.3 0.3-0.6 0.6-0.6z"></path><path d="m12.9 13.7c0.4 0 0.6 0.3 0.6 0.6 0 0.3-0.2 0.6-0.6 0.6h-3.2c-0.3 0-0.6-0.3-0.6-0.6 0-0.3 0.3-0.6 0.6-0.6z"></path></svg>